<?xml version="1.0" encoding="utf-8"?>
<svg viewBox="83.45 165.527 320.425 100.002" width="320.425" height="100.002" xmlns="http://www.w3.org/2000/svg">
  <path d="M 197.383 201.83 L 197.383 208.803 L 174.859 208.803 L 174.859 201.83 Z M 180.465 240.043 L 180.465 198.241 Q 180.465 194.379 182.071 191.815 Q 183.677 189.252 186.395 187.987 Q 189.112 186.723 192.393 186.723 Q 194.752 186.723 196.58 187.099 Q 198.409 187.475 199.263 187.782 L 197.418 194.755 Q 196.871 194.55 196.016 194.362 Q 195.162 194.174 194.068 194.174 Q 191.573 194.174 190.496 195.404 Q 189.42 196.635 189.42 198.891 L 189.42 240.043 Z" style="fill: rgb(255, 90, 94); white-space: pre;"/>
  <path d="M 252.324 190.654 C 252.324 194.258 249.42 197.16 245.816 197.16 C 242.212 197.16 239.31 194.258 239.31 190.654 C 239.31 187.05 242.113 184.148 245.816 184.148 C 249.522 184.248 252.324 187.151 252.324 190.654 L 252.324 190.654 Z M 225.496 203.768 L 225.496 205.37 C 225.496 205.37 222.394 201.364 215.787 201.364 C 204.877 201.364 196.367 209.673 196.367 221.184 C 196.367 232.596 204.777 241.004 215.787 241.004 C 222.494 241.004 225.496 236.9 225.496 236.9 L 225.496 238.601 C 225.496 239.402 226.098 240.001 226.898 240.001 L 235.005 240.001 L 235.005 202.362 L 226.898 202.362 C 226.098 202.365 225.496 203.067 225.496 203.768 L 225.496 203.768 Z M 225.496 227.891 C 223.996 230.094 220.992 231.996 217.389 231.996 C 210.983 231.996 206.077 227.992 206.077 221.184 C 206.077 214.377 210.983 210.373 217.389 210.373 C 220.893 210.373 224.096 212.375 225.496 214.477 L 225.496 227.891 Z M 241.012 202.365 L 250.621 202.365 L 250.621 240.004 L 241.012 240.004 L 241.012 202.365 L 241.012 202.365 Z M 384.557 201.363 C 377.95 201.363 374.846 205.369 374.846 205.369 L 374.846 184.248 L 365.237 184.248 L 365.237 240.004 L 373.346 240.004 C 374.147 240.004 374.746 239.303 374.746 238.602 L 374.746 236.901 C 374.746 236.901 377.85 241.005 384.455 241.005 C 395.367 241.005 403.875 232.599 403.875 221.187 C 403.875 209.775 395.367 201.363 384.557 201.363 L 384.557 201.363 Z M 382.955 231.895 C 379.25 231.895 376.348 229.995 374.846 227.791 L 374.846 214.377 C 376.348 212.375 379.551 210.273 382.955 210.273 C 389.361 210.273 394.266 214.277 394.266 221.084 C 394.266 227.891 389.362 231.895 382.955 231.895 Z M 360.233 217.682 L 360.233 240.104 L 350.622 240.104 L 350.622 218.782 C 350.622 212.577 348.62 210.073 343.218 210.073 C 340.316 210.073 337.312 211.575 335.407 213.778 L 335.407 240.005 L 325.8 240.005 L 325.8 202.366 L 333.405 202.366 C 334.206 202.366 334.807 203.067 334.807 203.768 L 334.807 205.37 C 337.61 202.466 341.313 201.364 345.016 201.364 C 349.221 201.364 352.725 202.567 355.528 204.969 C 358.93 207.772 360.233 211.375 360.233 217.682 L 360.233 217.682 Z M 302.473 201.363 C 295.868 201.363 292.764 205.369 292.764 205.369 L 292.764 184.248 L 283.155 184.248 L 283.155 240.004 L 291.262 240.004 C 292.063 240.004 292.664 239.303 292.664 238.602 L 292.664 236.901 C 292.664 236.901 295.768 241.005 302.373 241.005 C 313.285 241.005 321.793 232.599 321.793 221.187 C 321.893 209.774 313.385 201.363 302.473 201.363 L 302.473 201.363 Z M 300.871 231.895 C 297.168 231.895 294.266 229.995 292.764 227.791 L 292.764 214.377 C 294.266 212.375 297.469 210.273 300.871 210.273 C 307.279 210.273 312.183 214.277 312.183 221.084 C 312.183 227.891 307.279 231.895 300.871 231.895 Z M 274.846 201.363 C 277.748 201.363 279.25 201.865 279.25 201.865 L 279.25 210.773 C 279.25 210.773 271.242 208.07 266.238 213.777 L 266.238 240.103 L 256.627 240.103 L 256.627 202.365 L 264.736 202.365 C 265.537 202.365 266.136 203.066 266.136 203.767 L 266.136 205.369 C 267.94 203.266 271.844 201.363 274.846 201.363 L 274.846 201.363 Z M 175.047 236.6 C 174.547 235.399 174.046 234.098 173.546 232.996 C 172.744 231.195 171.943 229.492 171.244 227.891 L 171.144 227.791 C 164.236 212.775 156.83 197.561 149.021 182.547 L 148.721 181.945 C 147.9 180.387 147.099 178.819 146.32 177.24 C 145.318 175.437 144.318 173.537 142.716 171.734 C 139.513 167.73 134.908 165.527 130.004 165.527 C 124.998 165.527 120.494 167.73 117.192 171.533 C 115.69 173.334 114.588 175.236 113.588 177.039 C 112.807 178.617 112.006 180.185 111.187 181.744 L 110.886 182.346 C 103.178 197.36 95.671 212.575 88.764 227.59 L 88.663 227.789 C 87.963 229.393 87.161 231.094 86.36 232.894 C 85.86 233.996 85.36 235.197 84.86 236.498 C 83.558 240.201 83.157 243.705 83.659 247.31 C 84.76 254.818 89.764 261.122 96.672 263.927 C 99.275 265.029 101.978 265.529 104.78 265.529 C 105.581 265.529 106.581 265.429 107.383 265.328 C 110.687 264.928 114.09 263.828 117.394 261.926 C 121.498 259.623 125.402 256.321 129.806 251.516 C 134.21 256.321 138.214 259.623 142.218 261.926 C 145.523 263.828 148.925 264.928 152.228 265.328 C 153.029 265.43 154.031 265.529 154.832 265.529 C 157.635 265.529 160.437 265.029 162.939 263.927 C 169.947 261.122 174.851 254.718 175.953 247.31 C 176.748 243.807 176.348 240.305 175.047 236.6 L 175.047 236.6 Z M 129.903 241.805 C 124.497 234.998 120.993 228.592 119.793 223.188 C 119.293 220.885 119.192 218.883 119.493 217.081 C 119.692 215.479 120.294 214.077 121.095 212.876 C 122.997 210.175 126.2 208.472 129.904 208.472 C 133.609 208.472 136.912 210.074 138.714 212.876 C 139.515 214.077 140.115 215.48 140.317 217.081 C 140.616 218.884 140.516 220.985 140.016 223.188 C 138.811 228.492 135.307 234.899 129.903 241.805 Z M 169.841 246.51 C 169.141 251.715 165.637 256.221 160.733 258.223 C 158.331 259.223 155.727 259.524 153.126 259.223 C 150.624 258.922 148.12 258.121 145.519 256.621 C 141.915 254.617 138.312 251.516 134.107 246.91 C 140.713 238.803 144.717 231.394 146.219 224.789 C 146.92 221.685 147.021 218.883 146.719 216.279 C 146.32 213.777 145.418 211.474 144.017 209.472 C 140.912 204.966 135.706 202.365 129.902 202.365 C 124.098 202.365 118.892 205.068 115.789 209.472 C 114.388 211.474 113.486 213.777 113.086 216.279 C 112.686 218.883 112.785 221.785 113.586 224.789 C 115.087 231.394 119.191 238.902 125.697 247.01 C 121.593 251.615 117.889 254.719 114.285 256.721 C 111.682 258.223 109.181 259.024 106.679 259.323 C 103.977 259.624 101.373 259.223 99.071 258.323 C 94.167 256.321 90.663 251.815 89.963 246.61 C 89.663 244.108 89.862 241.606 90.864 238.803 C 91.163 237.801 91.665 236.801 92.165 235.6 C 92.866 233.998 93.665 232.295 94.467 230.594 L 94.568 230.395 C 101.474 215.479 108.881 200.264 116.589 185.45 L 116.889 184.848 C 117.691 183.348 118.492 181.746 119.292 180.244 C 120.093 178.642 120.993 177.14 122.095 175.838 C 124.197 173.438 126.999 172.135 130.103 172.135 C 133.207 172.135 136.009 173.438 138.111 175.838 C 139.213 177.143 140.113 178.645 140.914 180.244 C 141.716 181.746 142.517 183.348 143.316 184.848 L 143.617 185.45 C 151.208 200.325 158.516 215.343 165.539 230.495 L 165.539 230.595 C 166.341 232.199 167.041 233.999 167.842 235.603 C 168.342 236.802 168.843 237.802 169.143 238.804 C 169.942 241.404 170.242 243.908 169.841 246.51 L 169.841 246.51 Z" fill="#ff5a5f"/>
</svg>